<?xml version="1.0" encoding="utf-8"?>
<!-- Generator: Adobe Illustrator 16.0.4, SVG Export Plug-In . SVG Version: 6.00 Build 0)  -->
<!DOCTYPE svg PUBLIC "-//W3C//DTD SVG 1.1//EN" "http://www.w3.org/Graphics/SVG/1.1/DTD/svg11.dtd">
<svg version="1.1" id="Layer_1" xmlns="http://www.w3.org/2000/svg" xmlns:xlink="http://www.w3.org/1999/xlink" x="0px" y="0px"
	 width="458.978px" height="121.494px" viewBox="0 0 458.978 121.494" enable-background="new 0 0 458.978 121.494"
	 xml:space="preserve">
<g>
	<polygon stroke="#000000" stroke-width="0.2153" stroke-miterlimit="3.8637" points="86.475,54.661 92.451,49.713 83.245,49.713 
		77.101,54.661 	"/>
	<polygon stroke="#000000" stroke-width="0.2153" stroke-miterlimit="3.8637" points="366.748,54.661 372.725,49.713 
		362.799,49.713 356.655,54.661 	"/>
	<g>
		<path d="M41.554,105.499v1.595h6.795v1.978c0,2.551-0.909,2.931-5.146,2.931H40.93c-3.978,0-5.344-0.679-5.344-3.719v-5.121
			c0-3.491,0.686-4.169,5.288-4.169h2.985c3.465,0,4.43,0.448,4.43,2.273v0.917h2.418v-1.233c0-2.574-2.469-3.549-5.683-3.549
			h-5.601c-3.638,0-6.254,1.233-6.254,5.547v4.929c0,4.934,2.502,5.723,8.189,5.723h2.327c4.833,0,7.079-0.894,7.079-4.636v-3.465
			H41.554L41.554,105.499z"/>
		<path fill-rule="evenodd" clip-rule="evenodd" d="M75.038,107.094h7.755c2.929,0,3.582,0.975,3.582,2.996v3.381h2.418v-4.232
			c0-1.718-1.052-2.739-3.439-2.869v-0.043c3.381-0.316,3.722-1.977,3.722-4.208c0-3.635-2.015-4.591-6.622-4.591H72.62v15.944
			h2.418V107.094L75.038,107.094z M75.038,105.499v-6.377h7.445c3.808,0,4.176,0.765,4.176,2.808c0,2.632-0.455,3.483-4.176,3.57
			H75.038L75.038,105.499z"/>
		<path fill-rule="evenodd" clip-rule="evenodd" d="M124.668,110.09l1.674,3.381h2.5l-7.956-15.944h-3.414l-7.755,15.944h2.527
			l1.646-3.381H124.668L124.668,110.09z M123.982,108.6h-9.437l4.689-9.585L123.982,108.6L123.982,108.6z"/>
		<path fill-rule="evenodd" clip-rule="evenodd" d="M149.645,113.471h2.42v-6.207h8.329c5.172,0,5.195-3.488,5.195-4.91
			c0-2.745-0.965-4.827-5.083-4.827h-10.861V113.471L149.645,113.471z M159.457,99.122c2.984,0,3.716,0.403,3.716,3.47
			c0,3.096-1.641,3.078-4.854,3.078h-6.253v-6.547H159.457L159.457,99.122z"/>
		<polygon points="205.046,97.527 202.63,97.527 202.63,104.543 190.156,104.543 190.156,97.527 187.74,97.527 187.74,113.471 
			190.156,113.471 190.156,106.138 202.63,106.138 202.63,113.471 205.046,113.471 205.046,97.527 		"/>
		<polygon points="230.466,97.527 228.055,97.527 228.055,113.471 230.466,113.471 230.466,97.527 		"/>
		<path d="M262.326,113.6c4.263,0,7.387-0.406,7.387-4.062v-1.487h-2.415v1.275c0,2.273-1.194,2.677-5.056,2.677h-2.872
			c-4.039,0-4.234-1.635-4.234-5.271v-4.377c0-2.913,1.763-3.36,6.762-3.36h1.366c3.124,0,3.749,0.833,3.749,3.062v0.448h2.416
			v-0.51c0-3.146-1.361-4.591-5.829-4.591h-1.987c-5.171,0-8.893,0.508-8.893,5.018v6.162c0,3.19,2.304,5.019,6.193,5.019H262.326
			L262.326,113.6z"/>
		<path d="M298.137,106.114c3.894,0.235,5.717-0.274,5.717,2.763c0,3.125-1.254,3.125-5.801,3.125c-4.519,0-5.429,0-5.368-3.507
			h-2.415c-0.457,4.614,2.354,5.104,7.783,5.104c5.372,0,8.217-0.154,8.217-4.656c0-4.316-2.561-4.212-7.62-4.422
			c-3.978-0.084-5.908,0.171-5.908-2.872c0-2.208,0.652-2.656,5.367-2.656c4.519,0,5.232,0.11,5.345,2.894h2.415
			c0.257-4.335-3.068-4.486-7.671-4.486c-5.261,0-7.872,0.385-7.872,4.635C290.325,106.242,293.93,105.86,298.137,106.114
			L298.137,106.114z"/>
	</g>
	
		<line fill="none" stroke="#000000" stroke-width="0.5" stroke-miterlimit="3.8637" x1="429.381" y1="84.329" x2="455.696" y2="84.329"/>
	<g>
		<g>
			<path fill-rule="evenodd" clip-rule="evenodd" d="M434.31,83.047c-6.565,0-1.641-4.063,2.388-7.843
				c6.012-5.638,10.132-8.172,15.222-14.426c5.223-6.417-10.446-5.123-10.446-5.123l3.549-3.134H433.54
				c0,0-9.774,9.301-18.779,16.564c-10.366,6.839-24.771,10.595-24.771,10.595l23.578-25.07c0,0-11.491,0-22.981,0
				s-23.279,13.132-23.279,13.132s-19.102,12.685-25.519,15.371s-3.581-1.94,3.582-8.655c7.162-6.715,18.987-16.679,18.987-16.679
				H353.74l-16.877,13.695l-10.445,2.686l2.536-20.743l3.283-4.775l-1.044-1.94c0,0-35.449,29.419-41.934,33.577
				c-12.337,7.91-12.335-5.721-10.596-7.76c3.332-1.839,12.237-6.865,17.161-9.7c4.925-2.835,7.015-4.179,7.312-6.865
				c0.299-2.686-3.561-5.337-14.773-1.641c-13.281,4.376-19.598,17.658-19.598,17.658s-4.727,2.488-10.397,5.323
				c6.268-12.087,9.999-23.28,2.537-38.352c-7.462-15.072-24.175-27.309-24.175-27.309s-7.611,10.894-14.773,18.206
				c-7.164,7.312-36.562,34.621-44.471,41.187s-10.297,5.82-15.818,5.521s-12.395,0.52-23.13,4.376
				c-15.371,5.521-10.894-7.062-10.894-7.062s15.52-6.715,21.788-11.789c6.268-5.074-0.299-11.342-16.266-4.179
				s-17.311,18.803-17.311,18.803s-10.147,4.974-16.415,7.809s-1.045-4.974,7.909-12.882c8.954-7.909,12.237-10.745,10.745-13.132
				s-9.7-2.089-9.7-2.089l1.94-1.791H99.74c0,0-8.655,7.61-14.326,12.535c-0.895,0.895-13.58,9.401-21.937,14.773
				c-8.357,5.373-5.671-0.149-0.746-4.924s21.489-19.25,21.489-19.25H73.774l-10.147,9.401c0,0-15.968,7.163-32.233,16.713
				c-16.266,9.551-5.373-19.997-1.791-26.413c3.582-6.417,9.551-17.311,18.504-28.055s23.28-24.175,23.28-24.175
				s-0.746-0.597-1.642-1.343c-26.861,23.279-48.947,48.35-58.498,63.571s-8.208,33.129,3.134,33.427
				c1.94-2.238,7.76-8.058,16.713-13.58c8.954-5.521,24.772-13.132,24.772-13.132s-6.716,7.76-5.521,10.894
				c1.193,3.134,6.125,4.204,10.147,1.69c5.969-3.73,16.564-10.894,16.564-10.894l-10.414,9.651H78.25
				c0,0,20.743-19.698,28.951-27.458c13.58-0.448,2.537,7.76-2.238,12.087c-4.775,4.328-11.938,10.148-12.983,13.282
				c-1.045,3.134,1.492,6.167,7.163,3.779c4.803-2.022,13.431-5.869,17.46-7.66c1.791,3.88,4.775,7.163,9.7,7.312
				c4.925,0.149,9.7-3.283,22.683-6.417s22.533,2.537,26.712,5.372c4.178,2.835,5.074,0,8.356-3.582
				c3.283-3.581,32.98-39.247,52.528-61.482c24.623,25.518,15.968,44.47,3.88,55.96c-12.088,11.491-28.502,8.208-33.576,7.611
				c-5.074-0.597-4.775,2.985-0.895,4.178c3.88,1.194,11.938,5.82,24.772,4.626c12.833-1.194,22.533-9.401,22.533-9.401
				s7.562-3.533,14.873-6.965c-1.939,12.684,10.048,13.68,21.986,5.92c11.938-7.76,34.919-24.623,34.919-24.623
				s-0.597,14.177-3.88,18.057s-8.356,2.835-11.938,0.448c-3.582-2.388-7.163,0.298-7.312,2.089
				c-0.149,1.791,1.193,8.058,11.043,8.058c9.849,0,12.685-8.954,12.685-8.954s4.178-1.045,7.909-2.089
				c-8.656,9.252-1.143,14.823,7.214,11.241c5.478-2.347,16.215-8.854,22.034-11.54c-1.642,11.789,8.954,10.744,8.954,10.744
				s-39.695,10.745-45.216,11.938c-5.521,1.194-7.611,5.82-4.179,11.043c3.432,5.224,14.325,11.192,30.442,4.626
				s34.771-29.995,34.771-29.995l19.996-7.014l-8.944,8.357h11.78c0,0,20.444-19.25,29.397-27.309c9.7-0.747,8.954,1.94,6.417,4.924
				c-2.536,2.984-15.221,12.834-17.608,15.222s-5.373,7.014-0.448,7.014s27.31,0,27.31,0v-1.857
				C455.501,83.047,440.876,83.047,434.31,83.047z M281.201,63.714c1.81-2.776,6.864-7.163,12.237-8.655
				c5.372-1.493,10.894-1.194,5.223,3.134c-5.671,4.327-13.58,7.909-16.117,8.804C280.008,67.892,278.963,67.146,281.201,63.714z
				 M129.287,66.549c1.809-2.776,6.864-7.163,12.237-8.655c5.372-1.492,10.894-1.194,5.223,3.134
				c-5.67,4.328-13.58,7.909-16.117,8.805C128.093,70.728,127.048,69.981,129.287,66.549z M351.488,106.965
				c-9.609,4.178-17.337,4.875-22.037,3.01c-4.031-1.6-7.958-7.461-0.944-9.278c6.172-1.598,42.53-11.714,42.53-11.714l1.989-0.597
				C373.026,88.385,362.184,102.313,351.488,106.965z M380.984,78.536c-7.492,3.674-14.891,1.254-12.135-4.775
				c2.934-6.417,14.005-20.024,31.235-15.719C404.863,59.235,386.259,75.95,380.984,78.536z"/>
		</g>
	</g>
</g>
</svg>
